<svg width="40" height="40" viewBox="0 0 40 40" fill="none" xmlns="http://www.w3.org/2000/svg">
<path d="M5.82383 0.658848C3.43229 1.0092 1.56627 2.90568 1.21591 5.33531C1.10928 6.08934 1.1169 33.3484 1.22353 34.011C1.58912 36.296 3.29519 38.0706 5.57249 38.5352C6.09802 38.6418 7.68985 38.657 20.1198 38.657C29.5032 38.657 34.2406 38.6266 34.5757 38.5733C35.2307 38.4666 36.0152 38.1924 36.5331 37.8802C37.4852 37.3089 38.4753 36.1589 38.8333 35.1992C39.2446 34.0948 39.2293 34.7803 39.2065 19.3876C39.1836 3.35505 39.2446 4.92403 38.5591 3.54546C37.8965 2.22021 36.7236 1.26816 35.185 0.788322C34.8063 0.672188 34.4124 0.613041 34.0163 0.612827L20.4473 0.60553C12.6253 0.597916 6.07518 0.620766 5.82383 0.658848ZM17.7511 13.8961C19.2744 14.2236 20.3407 14.673 21.605 15.5184C22.2143 15.9297 22.8084 16.4476 24.0499 17.6586C26.2815 19.8293 26.9441 20.3015 28.2617 20.6595C28.9396 20.8423 30.4705 20.8423 31.1484 20.6595C32.4279 20.3091 33.6084 19.4713 34.9489 17.9404C35.0034 17.877 35.106 17.9316 35.0837 18.0122L35.0403 18.1689C34.1644 21.284 32.4279 23.5385 30.0516 24.6429C29.2519 25.0237 28.6959 25.2065 27.721 25.4121C27.0203 25.5645 26.708 25.5873 25.1695 25.5873C23.631 25.5873 23.3187 25.5645 22.618 25.4121C20.9043 25.0465 19.6324 24.4753 18.3223 23.4852C17.8577 23.1424 16.7762 22.1675 15.9079 21.3221C13.8058 19.2581 13.1508 18.8392 11.6504 18.5726C10.904 18.4355 9.88337 18.4736 9.17505 18.664C8.02497 18.9687 6.66925 19.8826 5.73244 20.987C5.45063 21.3221 5.20691 21.5811 5.19167 21.5659C5.13836 21.5049 5.75529 19.7455 6.08279 19.0448C7.43089 16.1811 9.69296 14.4217 12.7319 13.8733C13.7144 13.6905 13.7982 13.6905 15.4586 13.7133C16.6772 13.7362 17.1799 13.7743 17.7511 13.8961Z" fill="url(#paint0_linear_724_6257)"/>
<defs>
<linearGradient id="paint0_linear_724_6257" x1="20.1778" y1="38.657" x2="32.4999" y2="-5.5" gradientUnits="userSpaceOnUse">
<stop stop-color="#66D7C9"/>
<stop offset="1" stop-color="#8FD8B9"/>
</linearGradient>
</defs>
</svg>
